<svg xmlns="http://www.w3.org/2000/svg" width="30" height="26" fill="none" viewBox="0 0 30 26"><path fill="#ffc725" d="m26.813 15.336 2.386-10.563c.153-.761-.406-1.523-1.219-1.523H8.075l-.457-2.234C7.465.457 6.957 0 6.398 0h-5.18C.509 0 0 .559 0 1.219v.812C0 2.742.508 3.25 1.219 3.25h3.504l3.605 17.469c-.863.508-1.422 1.422-1.422 2.437A2.84 2.84 0 0 0 9.75 26c1.523 0 2.844-1.27 2.844-2.844 0-.761-.356-1.472-.864-2.031h10.614c-.508.559-.813 1.27-.813 2.031A2.84 2.84 0 0 0 24.375 26c1.523 0 2.844-1.27 2.844-2.844 0-1.117-.66-2.082-1.625-2.539l.254-1.219c.203-.761-.407-1.523-1.168-1.523H11.07l-.355-1.625h14.879a1.25 1.25 0 0 0 1.218-.914"/></svg>