<svg xmlns="http://www.w3.org/2000/svg" width="18" height="18" fill="none" viewBox="0 0 18 18"><path fill="#443737" fill-rule="evenodd" d="M17.48 2.108c.159 0 .308.073.406.198a.53.53 0 0 1 .101.445L16.43 9.778a.52.52 0 0 1-.507.411H5.5l.4 1.757h9.99c.286 0 .519.236.519.527a.523.523 0 0 1-.52.527H5.485a.52.52 0 0 1-.506-.409L2.356 1.054H.52A.523.523 0 0 1 0 .527C0 .236.232 0 .52 0h2.25c.241 0 .45.17.505.409l.387 1.7zM5.26 9.135h10.248l1.324-5.973H3.902zM6 16c0-1.103.897-2 2-2s2 .897 2 2-.897 2-2 2-2-.897-2-2m1.09 0a.91.91 0 0 0 1.82 0 .91.91 0 0 0-1.82 0M12 16c0-1.103.897-2 2-2s2 .897 2 2-.897 2-2 2-2-.897-2-2m1.09 0a.91.91 0 0 0 1.82 0 .91.91 0 0 0-1.82 0" clip-rule="evenodd"/></svg>