<svg xmlns="http://www.w3.org/2000/svg" width="176" height="56" fill="none" viewBox="0 0 176 56"><path fill="#fbb731" d="M0 0h42v56H0z"/><path fill="#443737" fill-rule="evenodd" d="M40.5 7h3c10.764.012 19.488 8.736 19.5 19.5a1.5 1.5 0 0 1-1.5 1.5h-39a1.5 1.5 0 0 1-1.5-1.5C21.012 15.736 29.736 7.012 40.5 7m0 3c-8.528.01-15.647 6.509-16.432 15h35.864c-.785-8.491-7.904-14.99-16.432-15zm15 27.108h6c.828 0 1.5.666 1.5 1.487v2.973c-.005 4.102-3.36 7.427-7.5 7.432h-27c-4.14-.005-7.495-3.33-7.5-7.432v-2.973c0-.821.672-1.487 1.5-1.487h21c.325 0 .64.105.9.298l5.1 3.79 5.1-3.79a1.5 1.5 0 0 1 .9-.298m0 8.92c2.485 0 4.5-1.997 4.5-4.46V40.08h-4l-5.6 4.162a1.51 1.51 0 0 1-1.8 0L43 40.081H24v1.487c0 2.463 2.015 4.46 4.5 4.46z" clip-rule="evenodd"/><path fill="#443737" d="M61.5 31.036h-39c-.828 0-1.5.68-1.5 1.518a1.51 1.51 0 0 0 1.5 1.518h39c.828 0 1.5-.68 1.5-1.518a1.51 1.51 0 0 0-1.5-1.518m-27.09-15.18c-.839 0-1.518.68-1.518 1.518v1.518a1.518 1.518 0 1 0 3.036 0v-1.518c0-.839-.68-1.518-1.518-1.518m7.59 0c-.838 0-1.518.68-1.518 1.518v1.518a1.518 1.518 0 1 0 3.036 0v-1.518c0-.839-.68-1.518-1.518-1.518m7.59 0c-.838 0-1.518.68-1.518 1.518v1.518a1.518 1.518 0 1 0 3.036 0v-1.518c0-.839-.68-1.518-1.518-1.518M74.704 36V19.08h7.752q2.712 0 4.176 1.176 1.488 1.176 1.488 3.216 0 1.344-.672 2.328-.672.96-1.872 1.44 1.44.408 2.208 1.44.792 1.032.792 2.544 0 2.256-1.584 3.528Q85.432 36 82.72 36zm3.552-9.96h3.552q2.736 0 2.736-2.112 0-2.088-2.736-2.088h-3.552zm0 7.2h3.96q1.44 0 2.112-.552t.672-1.68q0-1.104-.672-1.656t-2.112-.552h-3.96zm20.384 3.024q-3.6 0-5.496-1.848-1.873-1.848-1.873-5.496v-9.84h3.72v9.864q0 2.064.936 3.12.936 1.032 2.712 1.032 3.625 0 3.625-4.152V19.08h3.672v9.84q0 3.648-1.848 5.496t-5.448 1.848M109.227 36V19.08h7.728q2.832 0 4.368 1.368t1.536 3.816q0 1.896-.984 3.168-.96 1.248-2.76 1.704 1.272.384 2.088 1.848L123.939 36h-4.104l-2.928-5.4q-.36-.648-.888-.888-.528-.264-1.248-.264h-1.824V36zm3.72-9.24h3.336q3 0 3-2.4 0-2.376-3-2.376h-3.336zm21.25 9.504q-2.856 0-4.848-1.08-1.968-1.08-3-3.024t-1.032-4.56q0-2.688 1.056-4.656 1.08-1.968 3.096-3.048t4.848-1.08q1.776 0 3.36.504 1.608.504 2.616 1.344l-1.2 2.904q-1.104-.816-2.256-1.152-1.152-.36-2.496-.36-2.568 0-3.864 1.44-1.272 1.416-1.272 4.104 0 2.712 1.296 4.104 1.32 1.392 3.888 1.392 1.368 0 2.88-.432v-3.312h-3.648v-2.688h6.72v8.304q-1.248.624-2.88.96a16 16 0 0 1-3.264.336m17.285 0q-2.496 0-4.392-1.08a7.8 7.8 0 0 1-2.928-3.048q-1.032-1.968-1.032-4.608t1.032-4.584q1.056-1.968 2.928-3.048t4.392-1.08 4.392 1.08a7.37 7.37 0 0 1 2.928 3.048q1.056 1.944 1.056 4.56 0 2.64-1.056 4.608a7.53 7.53 0 0 1-2.928 3.072q-1.872 1.08-4.392 1.08m0-3.168q2.112 0 3.288-1.464 1.2-1.488 1.2-4.104 0-2.64-1.176-4.08-1.176-1.464-3.312-1.464-2.088 0-3.288 1.464-1.176 1.44-1.176 4.08 0 2.616 1.176 4.104 1.2 1.464 3.288 1.464m17.301 3.168q-1.992 0-3.768-.504-1.752-.504-2.928-1.368l1.08-2.928a9.3 9.3 0 0 0 2.568 1.248 10.2 10.2 0 0 0 3.048.456q1.728 0 2.472-.528.768-.552.768-1.368 0-.696-.528-1.104t-1.848-.696l-2.712-.576q-4.536-.96-4.536-4.704 0-1.608.864-2.808.864-1.224 2.4-1.896 1.56-.672 3.6-.672 1.752 0 3.288.504t2.544 1.416l-1.08 2.736q-1.968-1.56-4.776-1.56-1.512 0-2.352.6-.816.576-.816 1.512 0 .696.504 1.128t1.752.696l2.712.576q4.656 1.008 4.656 4.56 0 1.584-.864 2.784-.84 1.176-2.4 1.848-1.536.648-3.648.648"/></svg>