<svg xmlns="http://www.w3.org/2000/svg" width="63" height="56" fill="none" viewBox="0 0 63 56"><path fill="#fbb731" d="M0 0h42v56H0z"/><path fill="#fff" fill-rule="evenodd" d="M40.5 7h3c10.764.012 19.488 8.736 19.5 19.5a1.5 1.5 0 0 1-1.5 1.5h-39a1.5 1.5 0 0 1-1.5-1.5C21.012 15.736 29.736 7.012 40.5 7m0 3c-8.528.01-15.647 6.509-16.432 15h35.864c-.785-8.491-7.904-14.99-16.432-15zm15 27.108h6c.828 0 1.5.666 1.5 1.487v2.973c-.005 4.102-3.36 7.427-7.5 7.432h-27c-4.14-.005-7.495-3.33-7.5-7.432v-2.973c0-.821.672-1.487 1.5-1.487h21c.325 0 .64.105.9.298l5.1 3.79 5.1-3.79a1.5 1.5 0 0 1 .9-.298m0 8.92c2.485 0 4.5-1.997 4.5-4.46V40.08h-4l-5.6 4.162a1.51 1.51 0 0 1-1.8 0L43 40.081H24v1.487c0 2.463 2.015 4.46 4.5 4.46z" clip-rule="evenodd"/><path fill="#fff" d="M61.5 31.036h-39c-.828 0-1.5.68-1.5 1.518a1.51 1.51 0 0 0 1.5 1.518h39c.828 0 1.5-.68 1.5-1.518a1.51 1.51 0 0 0-1.5-1.518m-27.09-15.18c-.839 0-1.518.68-1.518 1.518v1.518a1.518 1.518 0 0 0 3.036 0v-1.518c0-.839-.68-1.518-1.518-1.518m7.59 0c-.838 0-1.518.68-1.518 1.518v1.518a1.518 1.518 0 1 0 3.036 0v-1.518c0-.839-.68-1.518-1.518-1.518m7.59 0c-.838 0-1.518.68-1.518 1.518v1.518a1.518 1.518 0 1 0 3.036 0v-1.518c0-.839-.68-1.518-1.518-1.518"/></svg>